<svg width="44" height="44" viewBox="0 0 44 44" fill="none" xmlns="http://www.w3.org/2000/svg">
<rect width="44" height="44" rx="22" fill="#F5F6F8"/>
<g opacity="0.4">
<mask id="path-2-inside-1_1315_14279" fill="white">
<path d="M12.1 32V16.03C12.1 14.02 13.1 13.01 15.09 13.01H21.32C23.31 13.01 24.3 14.02 24.3 16.03V32"/>
</mask>
<path d="M12.1 32V16.03C12.1 14.02 13.1 13.01 15.09 13.01H21.32C23.31 13.01 24.3 14.02 24.3 16.03V32" fill="#9EA2B2"/>
<path d="M13.1 32V16.03H11.1V32H13.1ZM13.1 16.03C13.1 15.1779 13.3115 14.7202 13.5594 14.4698C13.8055 14.2213 14.253 14.01 15.09 14.01V12.01C13.9371 12.01 12.8896 12.3037 12.1381 13.0627C11.3885 13.8198 11.1 14.8721 11.1 16.03H13.1ZM15.09 14.01H21.32V12.01H15.09V14.01ZM21.32 14.01C22.157 14.01 22.6007 14.2212 22.8439 14.468C23.0897 14.7176 23.3 15.1754 23.3 16.03H25.3C25.3 14.8746 25.0153 13.8224 24.2686 13.0645C23.5193 12.3038 22.473 12.01 21.32 12.01V14.01ZM23.3 16.03V32H25.3V16.03H23.3Z" fill="#9EA2B2" mask="url(#path-2-inside-1_1315_14279)"/>
</g>
<path d="M20.75 18.5H15.8C15.6661 18.5 15.55 18.3839 15.55 18.25C15.55 18.1161 15.6661 18 15.8 18H20.75C20.8839 18 21 18.1161 21 18.25C21 18.3839 20.8839 18.5 20.75 18.5Z" fill="#9EA2B2" stroke="#9EA2B2"/>
<path d="M20.75 22.75H15.8C15.39 22.75 15.05 22.41 15.05 22C15.05 21.59 15.39 21.25 15.8 21.25H20.75C21.16 21.25 21.5 21.59 21.5 22C21.5 22.41 21.16 22.75 20.75 22.75Z" fill="#9EA2B2"/>
<path d="M18.25 32.75C17.84 32.75 17.5 32.41 17.5 32V28.25C17.5 27.84 17.84 27.5 18.25 27.5C18.66 27.5 19 27.84 19 28.25V32C19 32.41 18.66 32.75 18.25 32.75Z" fill="#9EA2B2"/>
<path d="M33 31.25H30.73V28.25C31.68 27.94 32.37 27.05 32.37 26V24C32.37 22.69 31.3 21.62 29.99 21.62C28.68 21.62 27.61 22.69 27.61 24V26C27.61 27.04 28.29 27.92 29.22 28.24V31.25H11C10.59 31.25 10.25 31.59 10.25 32C10.25 32.41 10.59 32.75 11 32.75H29.93C29.95 32.75 29.96 32.76 29.98 32.76C30 32.76 30.01 32.75 30.03 32.75H33C33.41 32.75 33.75 32.41 33.75 32C33.75 31.59 33.41 31.25 33 31.25Z" fill="#9EA2B2"/>
</svg>
