<svg width="24" height="24" viewBox="0 0 24 24" fill="none" xmlns="http://www.w3.org/2000/svg">
<path opacity="0.4" d="M18.4864 5.93361L18.6329 6.08006H18.84H19.24C19.7022 6.08006 20.2625 6.08921 20.7118 6.33763C20.9228 6.4543 21.1112 6.62604 21.2513 6.89269C21.394 7.16413 21.5 7.55971 21.5 8.14006C21.5 8.92383 21.3496 9.38062 21.1631 9.65157C20.9865 9.90824 20.7397 10.0528 20.4096 10.1323C20.1777 10.1815 19.9274 10.2001 19.64 10.2001H4.36C4.06436 10.2001 3.80543 10.1891 3.57732 10.134L3.57733 10.134L3.57013 10.1323C3.32695 10.0774 3.13495 9.98448 2.98069 9.82379L2.98077 9.82372L2.97355 9.8165C2.69006 9.53301 2.5 9.05351 2.5 8.14006C2.5 7.55969 2.60601 7.16419 2.74876 6.89284C2.88897 6.6263 3.07748 6.45457 3.28904 6.33785C3.73964 6.08924 4.30249 6.08006 4.77 6.08006H5.17H5.37754L5.52408 5.93309L8.88966 2.55752C8.97814 2.47467 9.10223 2.48277 9.17337 2.5506C9.25654 2.64032 9.2468 2.76615 9.17645 2.83651L6.78645 5.22651L5.93289 6.08006H7.14H16.86H18.0671L17.2136 5.22651L14.8276 2.84058C14.7446 2.75209 14.7527 2.62788 14.8205 2.55669C14.9103 2.47352 15.0361 2.48326 15.1064 2.55361L18.4864 5.93361Z" fill="#FF0037" stroke="#FF0037"/>
<path d="M4.06253 11.1951C4.16808 11.1993 4.26833 11.2001 4.36002 11.2001H19.65C19.7342 11.2001 19.8203 11.1987 19.9077 11.195L18.5291 18.3252L18.5289 18.3266C18.3495 19.2681 18.128 20.0328 17.6186 20.5773C17.1297 21.1 16.2932 21.5001 14.69 21.5001H9.08002C7.52147 21.5001 6.6506 21.0416 6.12798 20.4607C5.5872 19.8596 5.34902 19.0521 5.21353 18.2198L5.21344 18.2193L4.06253 11.1951ZM7.25002 14.2501C7.25002 16.8663 9.38388 19.0001 12 19.0001C14.6162 19.0001 16.75 16.8663 16.75 14.2501C16.75 13.564 16.1862 13.0001 15.5 13.0001C14.8139 13.0001 14.25 13.564 14.25 14.2501C14.25 15.494 13.2439 16.5001 12 16.5001C10.7562 16.5001 9.75002 15.494 9.75002 14.2501C9.75002 13.564 9.18616 13.0001 8.50002 13.0001C7.81388 13.0001 7.25002 13.564 7.25002 14.2501Z" fill="#FF0037" stroke="#FF0037"/>
</svg>
