<svg width="24" height="24" viewBox="0 0 24 24" fill="none" xmlns="http://www.w3.org/2000/svg">
<path opacity="0.4" d="M18.4864 5.93361L18.6329 6.08006H18.84H19.24C19.7022 6.08006 20.2625 6.08921 20.7118 6.33763C20.9228 6.4543 21.1112 6.62604 21.2513 6.89269C21.394 7.16413 21.5 7.55971 21.5 8.14006C21.5 8.92383 21.3496 9.38062 21.1631 9.65157C20.9865 9.90824 20.7397 10.0528 20.4096 10.1323C20.1777 10.1815 19.9274 10.2001 19.64 10.2001H4.36C4.06436 10.2001 3.80543 10.1891 3.57732 10.134L3.57733 10.134L3.57013 10.1323C3.32695 10.0774 3.13495 9.98448 2.98069 9.82379L2.98077 9.82372L2.97355 9.8165C2.69006 9.53301 2.5 9.05351 2.5 8.14006C2.5 7.55969 2.60601 7.16419 2.74876 6.89284C2.88897 6.6263 3.07748 6.45457 3.28904 6.33785C3.73964 6.08924 4.30249 6.08006 4.77 6.08006H5.17H5.37754L5.52408 5.93309L8.88966 2.55752C8.97814 2.47467 9.10223 2.48277 9.17337 2.5506C9.25654 2.64032 9.2468 2.76615 9.17645 2.83651L6.78645 5.22651L5.93289 6.08006H7.14H16.86H18.0671L17.2136 5.22651L14.8276 2.84058C14.7446 2.75209 14.7527 2.62788 14.8205 2.55669C14.9103 2.47352 15.0361 2.48326 15.1064 2.55361L18.4864 5.93361Z" fill="white" stroke="white"/>
<path d="M4.06253 11.1949C4.16808 11.1992 4.26833 11.2 4.36002 11.2H19.66C19.7442 11.2 19.8303 11.1985 19.9177 11.1948L18.5391 18.3251L18.5389 18.3264C18.3595 19.268 18.138 20.0327 17.6286 20.5772C17.1397 21.0999 16.3032 21.5 14.7 21.5H9.09002C7.53162 21.5 6.66044 21.0416 6.13641 20.4602C5.59426 19.8588 5.35382 19.0512 5.21325 18.218C5.21319 18.2176 5.21313 18.2172 5.21306 18.2169L4.06253 11.1949ZM13.39 18.61C13.7042 18.61 14.0223 18.4932 14.2706 18.2465C14.7742 17.7565 14.7645 16.9673 14.2736 16.4764L13.7771 15.98L14.2436 15.5135C14.7288 15.0283 14.7288 14.2317 14.2436 13.7464C13.7583 13.2612 12.9617 13.2612 12.4765 13.7464L12.01 14.2129L11.5136 13.7164C11.0283 13.2312 10.2317 13.2312 9.74647 13.7164C9.26121 14.2017 9.26121 14.9983 9.74647 15.4835L10.2429 15.98L9.71647 16.5064C9.23121 16.9917 9.23121 17.7883 9.71647 18.2735C9.96518 18.5223 10.2846 18.64 10.6 18.64C10.9155 18.64 11.2349 18.5222 11.4836 18.2735L12.01 17.7471L12.5065 18.2435C12.7552 18.4922 13.0746 18.61 13.39 18.61Z" fill="white" stroke="white"/>
</svg>
