<svg width="583" height="374" viewBox="0 0 583 374" fill="none" xmlns="http://www.w3.org/2000/svg">
<path d="M108.393 17.4776H27.2439C21.7953 17.4776 17.506 21.9998 17.506 27.7442V54.9996H36.0544V37.033H108.625C143.867 37.033 173.428 66.3662 174.008 103.521C174.704 141.532 145.606 172.699 109.668 172.699H36.0544V154.732H17.506V181.987C17.506 187.61 21.7953 192.254 27.2439 192.254H109.668C155.807 192.254 193.252 152.288 192.556 103.521C191.861 55.6107 153.953 17.4776 108.393 17.4776Z" fill="white"/>
<path d="M0 372.091H50.5819C61.7796 372.091 71.2677 370.277 79.0462 366.651C86.8248 363.024 92.7442 357.754 96.8044 350.841C100.907 343.886 102.959 335.48 102.959 325.623V325.495C102.959 315.767 100.907 307.489 96.8044 300.661C92.7442 293.834 86.8034 288.65 78.9821 285.108C71.2036 281.524 61.7368 279.732 50.5819 279.732H0V372.091ZM21.1559 355.642V296.181H49.1715C56.2235 296.181 62.1429 297.312 66.9297 299.573C71.7165 301.835 75.3066 305.184 77.7 309.622C80.1361 314.017 81.3542 319.415 81.3542 325.815V325.943C81.3542 332.472 80.1147 337.934 77.6358 342.329C75.157 346.724 71.5241 350.052 66.7373 352.313C61.9505 354.532 56.0953 355.642 49.1715 355.642H21.1559Z" fill="white"/>
<path d="M153.51 373.691C162.229 373.691 169.836 372.24 176.333 369.339C182.829 366.437 187.872 362.341 191.462 357.05C195.095 351.716 196.912 345.38 196.912 338.04V337.912C196.912 330.616 195.095 324.301 191.462 318.967C187.872 313.633 182.829 309.515 176.333 306.614C169.836 303.712 162.229 302.261 153.51 302.261C144.834 302.261 137.248 303.712 130.751 306.614C124.255 309.515 119.19 313.633 115.558 318.967C111.967 324.301 110.172 330.616 110.172 337.912V338.04C110.172 345.337 111.967 351.652 115.558 356.986C119.148 362.32 124.191 366.437 130.687 369.339C137.184 372.24 144.791 373.691 153.51 373.691ZM153.574 358.906C149.086 358.906 145.133 358.095 141.714 356.474C138.338 354.81 135.688 352.441 133.764 349.369C131.884 346.254 130.944 342.478 130.944 338.04V337.912C130.944 333.517 131.884 329.784 133.764 326.711C135.688 323.596 138.338 321.228 141.714 319.607C145.133 317.943 149.065 317.111 153.51 317.111C157.998 317.111 161.93 317.921 165.306 319.543C168.725 321.164 171.375 323.532 173.255 326.647C175.136 329.762 176.076 333.517 176.076 337.912V338.04C176.076 342.478 175.136 346.254 173.255 349.369C171.375 352.441 168.725 354.81 165.306 356.474C161.93 358.095 158.019 358.906 153.574 358.906Z" fill="white"/>
<path d="M245.604 373.691C253.168 373.691 259.836 372.56 265.606 370.299C271.418 367.995 276.098 364.816 279.645 360.762C283.236 356.666 285.437 351.887 286.249 346.425L286.313 345.785H266.631L266.503 346.297C265.306 350.308 262.934 353.423 259.387 355.642C255.882 357.818 251.459 358.906 246.117 358.906C241.458 358.906 237.44 358.074 234.064 356.41C230.73 354.746 228.145 352.356 226.307 349.241C224.512 346.126 223.614 342.393 223.614 338.04V337.912C223.614 333.603 224.512 329.89 226.307 326.775C228.102 323.66 230.688 321.271 234.064 319.607C237.44 317.943 241.437 317.111 246.052 317.111C251.438 317.111 255.904 318.241 259.451 320.503C262.999 322.722 265.349 325.773 266.503 329.656L266.631 330.168H286.313L286.185 329.528C285.415 324.109 283.257 319.351 279.71 315.254C276.205 311.158 271.546 307.979 265.734 305.718C259.921 303.414 253.19 302.261 245.54 302.261C236.863 302.261 229.32 303.734 222.909 306.678C216.541 309.579 211.605 313.697 208.1 319.031C204.595 324.365 202.843 330.658 202.843 337.912V337.976C202.843 345.273 204.595 351.609 208.1 356.986C211.605 362.32 216.541 366.437 222.909 369.339C229.32 372.24 236.885 373.691 245.604 373.691Z" fill="white"/>
<path d="M332.184 373.179C334.577 373.179 336.885 373.072 339.108 372.859C341.33 372.688 343.318 372.454 345.07 372.155V358.266C344.087 358.437 342.933 358.586 341.608 358.714C340.283 358.799 338.915 358.842 337.505 358.842C332.633 358.842 329.128 357.989 326.991 356.282C324.854 354.532 323.786 351.545 323.786 347.321V318.135H345.07V303.926H323.786V286.9H303.335V303.926H289.295V318.135H303.335V349.753C303.335 357.946 305.643 363.898 310.259 367.611C314.917 371.323 322.226 373.179 332.184 373.179Z" fill="white"/>
<path d="M393.569 373.691C402.288 373.691 409.896 372.24 416.392 369.339C422.889 366.437 427.932 362.341 431.522 357.05C435.155 351.716 436.971 345.38 436.971 338.04V337.912C436.971 330.616 435.155 324.301 431.522 318.967C427.932 313.633 422.889 309.515 416.392 306.614C409.896 303.712 402.288 302.261 393.569 302.261C384.893 302.261 377.307 303.712 370.811 306.614C364.314 309.515 359.25 313.633 355.617 318.967C352.027 324.301 350.232 330.616 350.232 337.912V338.04C350.232 345.337 352.027 351.652 355.617 356.986C359.207 362.32 364.25 366.437 370.747 369.339C377.243 372.24 384.851 373.691 393.569 373.691ZM393.634 358.906C389.146 358.906 385.193 358.095 381.773 356.474C378.397 354.81 375.747 352.441 373.824 349.369C371.943 346.254 371.003 342.478 371.003 338.04V337.912C371.003 333.517 371.943 329.784 373.824 326.711C375.747 323.596 378.397 321.228 381.773 319.607C385.193 317.943 389.125 317.111 393.569 317.111C398.057 317.111 401.989 317.921 405.366 319.543C408.785 321.164 411.435 323.532 413.315 326.647C415.196 329.762 416.136 333.517 416.136 337.912V338.04C416.136 342.478 415.196 346.254 413.315 349.369C411.435 352.441 408.785 354.81 405.366 356.474C401.989 358.095 398.078 358.906 393.634 358.906Z" fill="white"/>
<path d="M445.531 372.091H465.982V339.576C465.982 335.053 466.815 331.277 468.482 328.248C470.192 325.175 472.585 322.871 475.662 321.335C478.782 319.799 482.436 319.031 486.625 319.031C488.121 319.031 489.574 319.095 490.984 319.223C492.437 319.351 493.72 319.543 494.831 319.799V303.286C493.933 303.072 492.886 302.902 491.689 302.773C490.535 302.603 489.317 302.517 488.035 302.517C482.522 302.517 477.885 303.862 474.124 306.55C470.363 309.195 467.777 312.929 466.366 317.751H465.982V303.99L445.531 303.926V372.091Z" fill="white"/>
<path d="M539.035 373.691C547.754 373.691 555.362 372.24 561.858 369.339C568.354 366.437 573.397 362.341 576.988 357.05C580.62 351.716 582.437 345.38 582.437 338.04V337.912C582.437 330.616 580.62 324.301 576.988 318.967C573.397 313.633 568.354 309.515 561.858 306.614C555.362 303.712 547.754 302.261 539.035 302.261C530.359 302.261 522.773 303.712 516.276 306.614C509.78 309.515 504.715 313.633 501.083 318.967C497.493 324.301 495.697 330.616 495.697 337.912V338.04C495.697 345.337 497.493 351.652 501.083 356.986C504.673 362.32 509.716 366.437 516.212 369.339C522.709 372.24 530.316 373.691 539.035 373.691ZM539.099 358.906C534.612 358.906 530.658 358.095 527.239 356.474C523.863 354.81 521.213 352.441 519.289 349.369C517.409 346.254 516.469 342.478 516.469 338.04V337.912C516.469 333.517 517.409 329.784 519.289 326.711C521.213 323.596 523.863 321.228 527.239 319.607C530.658 317.943 534.59 317.111 539.035 317.111C543.523 317.111 547.455 317.921 550.831 319.543C554.25 321.164 556.9 323.532 558.781 326.647C560.661 329.762 561.601 333.517 561.601 337.912V338.04C561.601 342.478 560.661 346.254 558.781 349.369C556.9 352.441 554.25 354.81 550.831 356.474C547.455 358.095 543.544 358.906 539.099 358.906Z" fill="white"/>
</svg>
