<svg width="24" height="24" viewBox="0 0 24 24" fill="none" xmlns="http://www.w3.org/2000/svg">
<path opacity="0.4" d="M21.5 12C21.5 17.2467 17.2467 21.5 12 21.5C6.75329 21.5 2.5 17.2467 2.5 12C2.5 6.75329 6.75329 2.5 12 2.5C17.2467 2.5 21.5 6.75329 21.5 12Z" fill="#9EA2B2" stroke="#9EA2B2"/>
<path d="M15.6075 15.404L15.5971 15.3971L15.5864 15.3907L12.4866 13.5408C12.4865 13.5407 12.4864 13.5407 12.4864 13.5407C11.8679 13.171 11.3901 12.3244 11.3901 11.61V7.51001C11.3901 7.37615 11.5063 7.26001 11.6401 7.26001C11.774 7.26001 11.8901 7.37615 11.8901 7.51001V11.61C11.8901 11.9084 12.0067 12.2178 12.1443 12.4597C12.281 12.7001 12.487 12.9592 12.7461 13.1107L15.8439 14.9594L15.8439 14.9594L15.8482 14.9619C15.9566 15.0251 16.0042 15.1703 15.932 15.3015C15.8729 15.3913 15.7852 15.43 15.7101 15.43C15.6836 15.43 15.6637 15.427 15.6487 15.4228C15.6344 15.4189 15.6212 15.4131 15.6075 15.404Z" fill="#F5F6F8" stroke="#F5F6F8"/>
</svg>
