<svg width="24" height="24" viewBox="0 0 24 24" fill="none" xmlns="http://www.w3.org/2000/svg">
<path d="M11.3094 21.0495L11.3094 21.0495L11.3022 21.047C9.47224 20.4195 7.07073 18.9765 5.13174 16.8528C3.19727 14.7341 1.75 11.9692 1.75 8.68998C1.75 5.46406 4.3582 2.84998 7.56 2.84998C9.11753 2.84998 10.5695 3.45733 11.6449 4.54202L12 4.90011L12.3551 4.54202C13.4305 3.45733 14.8825 2.84998 16.44 2.84998C19.6413 2.84998 22.25 5.47354 22.25 8.68998C22.25 11.9743 20.8026 14.7392 18.8684 16.8565C16.9295 18.9788 14.528 20.4194 12.6978 21.047L12.6978 21.047L12.6906 21.0495C12.511 21.1142 12.2722 21.15 12 21.15C11.7278 21.15 11.489 21.1142 11.3094 21.0495ZM11.4682 20.5831L11.4719 20.5843C11.6379 20.6397 11.8437 20.655 12.005 20.655C12.1663 20.655 12.3721 20.6397 12.5381 20.5843L12.5381 20.5843L12.5424 20.5829C13.7588 20.1651 16.0443 18.9819 18.0332 17.0251C20.0283 15.0623 21.76 12.284 21.76 8.68998C21.76 5.74653 19.3788 3.34998 16.45 3.34998C14.7711 3.34998 13.2121 4.13547 12.208 5.4926L12.2075 5.49338C12.1781 5.53319 12.111 5.57498 12.01 5.57498C11.909 5.57498 11.8419 5.53319 11.8125 5.49338L11.8125 5.49337L11.81 5.48998C10.7866 4.12544 9.23908 3.34998 7.56 3.34998C4.63116 3.34998 2.25 5.74653 2.25 8.68998C2.25 12.2789 3.97909 15.0571 5.97286 17.0212C7.96037 18.9791 10.246 20.1651 11.4682 20.5831Z" fill="#222222" stroke="#222222"/>
</svg>
