<svg width="24" height="24" viewBox="0 0 24 24" fill="none" xmlns="http://www.w3.org/2000/svg">
<path d="M21.5 8.68998C21.5 9.69209 21.3589 10.6261 21.1096 11.5H2.89038C2.64105 10.6261 2.5 9.69209 2.5 8.68998C2.5 5.87378 4.76848 3.59998 7.56 3.59998C9.2051 3.59998 10.6796 4.39971 11.5996 5.6295L12 6.16463L12.4004 5.6295C13.3204 4.39971 14.7949 3.59998 16.44 3.59998C19.2315 3.59998 21.5 5.87378 21.5 8.68998Z" fill="#EA4C68" stroke="#EA4C68"/>
<path d="M6.96467 17.5933C5.45088 16.2923 4.03807 14.5879 3.22595 12.5H20.7741C19.962 14.5879 18.5492 16.2923 17.0354 17.5933C15.365 19.0289 13.6004 19.9483 12.459 20.3366L12.459 20.3366L12.4536 20.3385C12.3538 20.3737 12.1893 20.4 12 20.4C11.8108 20.4 11.6463 20.3737 11.5464 20.3385L11.5464 20.3385L11.5411 20.3366C10.3996 19.9483 8.63502 19.0289 6.96467 17.5933Z" fill="#EA4C68" stroke="#EA4C68"/>
</svg>
