<svg width="44" height="44" viewBox="0 0 44 44" fill="none" xmlns="http://www.w3.org/2000/svg">
<rect width="44" height="44" rx="22" fill="#FF0037" fill-opacity="0.1"/>
<path opacity="0.4" d="M21.9999 33.5691L22.1017 33.475C22.3729 33.2239 22.7454 32.8786 23.1506 32.5015C23.9625 31.7459 24.9011 30.867 25.4216 30.3614L25.4234 30.3596C28.256 27.636 31.2407 23.4489 30.1324 18.5608L21.9999 33.5691ZM21.9999 33.5691L21.898 33.4749C21.6266 33.2238 21.2538 32.8784 20.8479 32.5012C20.0348 31.7457 19.093 30.8662 18.5667 30.3597L18.5666 30.3596C15.7343 27.6363 12.7493 23.4392 13.8576 18.5508L21.9999 33.5691ZM22 12.25C25.3659 12.25 29.1461 14.2217 30.1324 18.5606L13.8576 18.5506C14.8436 14.2128 18.6328 12.25 21.99 12.25H21.9901H21.9901H21.9902H21.9902H21.9903H21.9904H21.9904H21.9905H21.9905H21.9906H21.9906H21.9907H21.9907H21.9908H21.9909H21.9909H21.991H21.991H21.9911H21.9911H21.9912H21.9912H21.9913H21.9913H21.9914H21.9915H21.9915H21.9916H21.9916H21.9917H21.9917H21.9918H21.9918H21.9919H21.9919H21.992H21.992H21.9921H21.9921H21.9922H21.9922H21.9923H21.9923H21.9924H21.9924H21.9925H21.9925H21.9926H21.9926H21.9927H21.9927H21.9928H21.9928H21.9928H21.9929H21.9929H21.993H21.993H21.9931H21.9931H21.9932H21.9932H21.9933H21.9933H21.9933H21.9934H21.9934H21.9935H21.9935H21.9936H21.9936H21.9937H21.9937H21.9937H21.9938H21.9938H21.9939H21.9939H21.994H21.994H21.994H21.9941H21.9941H21.9942H21.9942H21.9942H21.9943H21.9943H21.9944H21.9944H21.9944H21.9945H21.9945H21.9946H21.9946H21.9946H21.9947H21.9947H21.9948H21.9948H21.9948H21.9949H21.9949H21.9949H21.995H21.995H21.9951H21.9951H21.9951H21.9952H21.9952H21.9952H21.9953H21.9953H21.9953H21.9954H21.9954H21.9954H21.9955H21.9955H21.9956H21.9956H21.9956H21.9957H21.9957H21.9957H21.9958H21.9958H21.9958H21.9959H21.9959H21.9959H21.9959H21.996H21.996H21.996H21.9961H21.9961H21.9961H21.9962H21.9962H21.9962H21.9963H21.9963H21.9963H21.9964H21.9964H21.9964H21.9964H21.9965H21.9965H21.9965H21.9966H21.9966H21.9966H21.9966H21.9967H21.9967H21.9967H21.9968H21.9968H21.9968H21.9968H21.9969H21.9969H21.9969H21.9969H21.997H21.997H21.997H21.997H21.9971H21.9971H21.9971H21.9972H21.9972H21.9972H21.9972H21.9973H21.9973H21.9973H21.9973H21.9974H21.9974H21.9974H21.9974H21.9974H21.9975H21.9975H21.9975H21.9975H21.9976H21.9976H21.9976H21.9976H21.9977H21.9977H21.9977H21.9977H21.9977H21.9978H21.9978H21.9978H21.9978H21.9978H21.9979H21.9979H21.9979H21.9979H21.998H21.998H21.998H21.998H21.998H21.9981H21.9981H21.9981H21.9981H21.9981H21.9981H21.9982H21.9982H21.9982H21.9982H21.9982H21.9983H21.9983H21.9983H21.9983H21.9983H21.9984H21.9984H21.9984H21.9984H21.9984H21.9984H21.9985H21.9985H21.9985H21.9985H21.9985H21.9985H21.9986H21.9986H21.9986H21.9986H21.9986H21.9986H21.9986H21.9987H21.9987H21.9987H21.9987H21.9987H21.9987H21.9988H21.9988H21.9988H21.9988H21.9988H21.9988H21.9988H21.9989H21.9989H21.9989H21.9989H21.9989H21.9989H21.9989H21.9989H21.999H21.999H21.999H21.999H21.999H21.999H21.999H21.999H21.9991H21.9991H21.9991H21.9991H21.9991H21.9991H21.9991H21.9991H21.9992H21.9992H21.9992H21.9992H21.9992H21.9992H21.9992H21.9992H21.9992H21.9993H21.9993H21.9993H21.9993H21.9993H21.9993H21.9993H21.9993H21.9993H21.9993H21.9994H21.9994H21.9994H21.9994H21.9994H21.9994H21.9994H21.9994H21.9994H21.9994H21.9994H21.9995H21.9995H21.9995H21.9995H21.9995H21.9995H21.9995H21.9995H21.9995H21.9995H21.9995H21.9995H21.9995H21.9996H21.9996H21.9996H21.9996H21.9996H21.9996H21.9996H21.9996H21.9997H21.9997H21.9997H21.9997H21.9997H21.9997H21.9997H21.9997H21.9997H21.9998H21.9998H21.9998H21.9998H21.9998H21.9998H21.9998H21.9998H21.9998H21.9998H21.9998H21.9999H21.9999H21.9999H21.9999H21.9999H21.9999H21.9999H21.9999H21.9999H21.9999H21.9999H21.9999H22H22H22H22H22H22H22Z" fill="#FF0037" stroke="#FF0037"/>
<path d="M24.65 21.31C24.65 22.7736 23.4636 23.96 22 23.96C20.5365 23.96 19.35 22.7736 19.35 21.31C19.35 19.8465 20.5365 18.66 22 18.66C23.4636 18.66 24.65 19.8465 24.65 21.31Z" fill="#FF0037" stroke="#FF0037"/>
</svg>
