<svg width="25" height="24" viewBox="0 0 25 24" fill="none" xmlns="http://www.w3.org/2000/svg">
<path opacity="0.4" d="M22.1602 10.44L21.1802 14.62C20.3402 18.23 18.6802 19.69 15.5602 19.39C15.0602 19.35 14.5202 19.26 13.9402 19.12L12.2602 18.72C8.09018 17.73 6.80018 15.67 7.78018 11.49L8.76018 7.29999C8.96018 6.44999 9.20018 5.70999 9.50018 5.09999C10.6702 2.67999 12.6602 2.02999 16.0002 2.81999L17.6702 3.20999C21.8602 4.18999 23.1402 6.25999 22.1602 10.44Z" fill="#B2B6C6"/>
<path d="M15.5603 19.39C14.9403 19.81 14.1603 20.16 13.2103 20.47L11.6303 20.99C7.66034 22.27 5.57034 21.2 4.28034 17.23L3.00034 13.28C1.72034 9.31001 2.78034 7.21001 6.75034 5.93001L8.33034 5.41001C8.74034 5.28001 9.13034 5.17001 9.50034 5.10001C9.20034 5.71001 8.96034 6.45001 8.76034 7.30001L7.78034 11.49C6.80034 15.67 8.09034 17.73 12.2603 18.72L13.9403 19.12C14.5203 19.26 15.0603 19.35 15.5603 19.39Z" fill="#B2B6C6"/>
<path d="M17.9904 10.51C17.9304 10.51 17.8704 10.5 17.8004 10.49L12.9504 9.26001C12.5504 9.16001 12.3104 8.75001 12.4104 8.35001C12.5104 7.95001 12.9204 7.71001 13.3204 7.81001L18.1704 9.04001C18.5704 9.14001 18.8104 9.55001 18.7104 9.95001C18.6304 10.28 18.3204 10.51 17.9904 10.51Z" fill="#B2B6C6"/>
<path d="M15.0601 13.89C15.0001 13.89 14.9401 13.88 14.8701 13.87L11.9601 13.13C11.5601 13.03 11.3201 12.62 11.4201 12.22C11.5201 11.82 11.9301 11.58 12.3301 11.68L15.2401 12.42C15.6401 12.52 15.8801 12.93 15.7801 13.33C15.7001 13.67 15.4001 13.89 15.0601 13.89Z" fill="#B2B6C6"/>
</svg>
