<svg width="24" height="24" viewBox="0 0 24 24" fill="none" xmlns="http://www.w3.org/2000/svg">
<path d="M2 9.25C1.86614 9.25 1.75 9.13386 1.75 9V6.5C1.75 3.87676 3.88552 1.75 6.5 1.75H9C9.13386 1.75 9.25 1.86614 9.25 2C9.25 2.13386 9.13386 2.25 9 2.25H6.5C4.15386 2.25 2.25 4.15386 2.25 6.5V9C2.25 9.13386 2.13386 9.25 2 9.25Z" fill="#222222" stroke="#222222"/>
<path d="M22 9.25C21.8661 9.25 21.75 9.13386 21.75 9V6.5C21.75 4.15386 19.8461 2.25 17.5 2.25H15C14.8661 2.25 14.75 2.13386 14.75 2C14.75 1.86614 14.8661 1.75 15 1.75H17.5C20.1145 1.75 22.25 3.87676 22.25 6.5V9C22.25 9.13386 22.1339 9.25 22 9.25Z" fill="#222222" stroke="#222222"/>
<path d="M17.5 22.25H16C15.8661 22.25 15.75 22.1339 15.75 22C15.75 21.8661 15.8661 21.75 16 21.75H17.5C19.8461 21.75 21.75 19.8461 21.75 17.5V16C21.75 15.8661 21.8661 15.75 22 15.75C22.1339 15.75 22.25 15.8661 22.25 16V17.5C22.25 20.1232 20.1145 22.25 17.5 22.25Z" fill="#222222" stroke="#222222"/>
<path d="M9 22.25H6.5C3.88552 22.25 1.75 20.1232 1.75 17.5V15C1.75 14.8661 1.86614 14.75 2 14.75C2.13386 14.75 2.25 14.8661 2.25 15V17.5C2.25 19.8461 4.15386 21.75 6.5 21.75H9C9.13386 21.75 9.25 21.8661 9.25 22C9.25 22.1339 9.13386 22.25 9 22.25Z" fill="#222222" stroke="#222222"/>
<path d="M14 17.75H10C8.87908 17.75 8.08544 17.4433 7.57105 16.9289C7.05667 16.4146 6.75 15.6209 6.75 14.5V9.5C6.75 8.37908 7.05667 7.58544 7.57105 7.07105C8.08544 6.55667 8.87908 6.25 10 6.25H14C15.1209 6.25 15.9146 6.55667 16.4289 7.07105C16.9433 7.58544 17.25 8.37908 17.25 9.5V14.5C17.25 15.6209 16.9433 16.4146 16.4289 16.9289C15.9146 17.4433 15.1209 17.75 14 17.75ZM10 6.75C9.15353 6.75 8.43049 6.9274 7.92895 7.42895C7.4274 7.93049 7.25 8.65353 7.25 9.5V14.5C7.25 15.3465 7.4274 16.0695 7.92895 16.5711C8.43049 17.0726 9.15353 17.25 10 17.25H14C14.8465 17.25 15.5695 17.0726 16.0711 16.5711C16.5726 16.0695 16.75 15.3465 16.75 14.5V9.5C16.75 8.65353 16.5726 7.93049 16.0711 7.42895C15.5695 6.9274 14.8465 6.75 14 6.75H10Z" fill="#222222" stroke="#222222"/>
<path d="M19 12.25H5C4.86614 12.25 4.75 12.1339 4.75 12C4.75 11.8661 4.86614 11.75 5 11.75H19C19.1339 11.75 19.25 11.8661 19.25 12C19.25 12.1339 19.1339 12.25 19 12.25Z" fill="#222222" stroke="#222222"/>
</svg>
