<svg width="24" height="24" viewBox="0 0 24 24" fill="none" xmlns="http://www.w3.org/2000/svg">
<path opacity="0.4" d="M4.9264 10.0896L4.92648 10.0889C5.04381 9.09925 5.18017 8.3686 5.60872 7.8595C6.01045 7.38227 6.76659 7 8.39996 7H15.6C17.2333 7 17.9895 7.38227 18.3912 7.8595C18.8198 8.3686 18.9561 9.09925 19.0735 10.0889L19.0735 10.0896L19.8235 16.3396L19.9735 17.5896L19.9738 17.592L19.9888 17.712L20.0027 17.8231C20.1015 18.9419 19.9428 19.841 19.4565 20.4562C18.9822 21.0561 18.1033 21.5 16.49 21.5H7.50996C5.84575 21.5 4.96257 21.0267 4.49852 20.3923C4.01712 19.7342 3.88704 18.7724 4.02647 17.589C4.02649 17.5889 4.02651 17.5887 4.02653 17.5885L4.9264 10.0896Z" fill="white" stroke="white"/>
<path d="M16 8.75C15.59 8.75 15.25 8.41 15.25 8V4.5C15.25 3.42 14.58 2.75 13.5 2.75H10.5C9.42 2.75 8.75 3.42 8.75 4.5V8C8.75 8.41 8.41 8.75 8 8.75C7.59 8.75 7.25 8.41 7.25 8V4.5C7.25 2.59 8.59 1.25 10.5 1.25H13.5C15.41 1.25 16.75 2.59 16.75 4.5V8C16.75 8.41 16.41 8.75 16 8.75Z" fill="white"/>
<path d="M20.5 17.77C20.47 17.78 20.44 17.78 20.41 17.78H8C7.59 17.78 7.25 17.44 7.25 17.03C7.25 16.61 7.59 16.28 8 16.28H20.32L20.47 17.53C20.48 17.61 20.49 17.69 20.5 17.77Z" fill="white"/>
</svg>
