<svg width="25" height="24" viewBox="0 0 25 24" fill="none" xmlns="http://www.w3.org/2000/svg">
<path d="M17.5202 21.29L14.0402 19.55C13.0702 19.07 11.9402 19.07 10.9702 19.55L7.49016 21.29C4.50016 22.78 1.35016 19.57 2.91016 16.62L3.73016 15.08C3.84016 14.87 4.02016 14.7 4.24016 14.6L16.8802 8.89999C17.4002 8.66999 18.0102 8.87999 18.2702 9.37999L22.0802 16.62C23.6402 19.57 20.5002 22.78 17.5202 21.29Z" fill="#B2B6C6"/>
<path opacity="0.4" d="M16.1004 7.68999L7.82045 11.42C6.89045 11.84 5.95045 10.84 6.43045 9.93999L9.47045 4.16999C10.7604 1.71999 14.2604 1.71999 15.5504 4.16999L16.6204 6.20999C16.9004 6.75999 16.6604 7.43999 16.1004 7.68999Z" fill="#B2B6C6"/>
</svg>
