<svg width="25" height="24" viewBox="0 0 25 24" fill="none" xmlns="http://www.w3.org/2000/svg">
<path opacity="0.4" d="M16.9899 22H8.00984C4.49984 22 3.73984 19.99 4.02984 17.53L4.92984 10.03C5.15984 8.09 5.49984 6.5 8.89984 6.5H16.0999C19.4999 6.5 19.8399 8.09 20.0699 10.03L20.8199 16.28L20.9698 17.53C20.9798 17.61 20.9898 17.69 20.9998 17.77C21.2098 20.12 20.3899 22 16.9899 22Z" fill="#B2B6C6"/>
<path d="M16.5 8.75C16.09 8.75 15.75 8.41 15.75 8V4.5C15.75 3.42 15.08 2.75 14 2.75H11C9.92 2.75 9.25 3.42 9.25 4.5V8C9.25 8.41 8.91 8.75 8.5 8.75C8.09 8.75 7.75 8.41 7.75 8V4.5C7.75 2.59 9.09 1.25 11 1.25H14C15.91 1.25 17.25 2.59 17.25 4.5V8C17.25 8.41 16.91 8.75 16.5 8.75Z" fill="#B2B6C6"/>
<path d="M21 17.77C20.97 17.78 20.94 17.78 20.91 17.78H8.5C8.09 17.78 7.75 17.44 7.75 17.03C7.75 16.61 8.09 16.28 8.5 16.28H20.82L20.97 17.53C20.98 17.61 20.99 17.69 21 17.77Z" fill="#B2B6C6"/>
</svg>
