<svg width="25" height="24" viewBox="0 0 25 24" fill="none" xmlns="http://www.w3.org/2000/svg">
<path opacity="0.4" d="M16.69 2H8.31C4.67 2 2.5 4.17 2.5 7.81V16.18C2.5 19.83 4.67 22 8.31 22H16.68C20.32 22 22.49 19.83 22.49 16.19V7.81C22.5 4.17 20.33 2 16.69 2Z" fill="#B2B6C6"/>
<path d="M12.5004 10.69C11.7804 10.69 11.1904 11.28 11.1904 12C11.1904 12.72 11.7804 13.31 12.5004 13.31C13.2204 13.31 13.8104 12.72 13.8104 12C13.8104 11.28 13.2204 10.69 12.5004 10.69Z" fill="#B2B6C6"/>
<path d="M7.50043 10.69C6.78043 10.69 6.19043 11.28 6.19043 12C6.19043 12.72 6.78043 13.31 7.50043 13.31C8.22043 13.31 8.81043 12.72 8.81043 12C8.81043 11.28 8.22043 10.69 7.50043 10.69Z" fill="#B2B6C6"/>
<path d="M17.5004 10.69C16.7804 10.69 16.1904 11.28 16.1904 12C16.1904 12.72 16.7804 13.31 17.5004 13.31C18.2204 13.31 18.8104 12.72 18.8104 12C18.8104 11.28 18.2204 10.69 17.5004 10.69Z" fill="#B2B6C6"/>
</svg>
