<svg width="24" height="24" viewBox="0 0 24 24" fill="none" xmlns="http://www.w3.org/2000/svg">
<path opacity="0.4" d="M21.5 14.5V17C21.5 18.3839 20.3839 19.5 19 19.5H18.4495C18.2166 18.3617 17.205 17.5 16 17.5C14.795 17.5 13.7834 18.3617 13.5505 19.5H10.4495C10.2166 18.3617 9.20502 17.5 8 17.5C6.79498 17.5 5.78341 18.3617 5.55046 19.5H5C3.61614 19.5 2.5 18.3839 2.5 17V14.5H13C14.3761 14.5 15.5 13.3761 15.5 12V5.5H16.84C17.3769 5.5 17.8739 5.79079 18.1468 6.25973C18.1471 6.26018 18.1474 6.26063 18.1476 6.26108L19.428 8.5H19C18.1739 8.5 17.5 9.17386 17.5 10V13C17.5 13.8261 18.1739 14.5 19 14.5H21.5Z" fill="#FF0037" stroke="#FF0037"/>
<path d="M9.5 20C9.5 20.8284 8.82843 21.5 8 21.5C7.17157 21.5 6.5 20.8284 6.5 20C6.5 19.1716 7.17157 18.5 8 18.5C8.82843 18.5 9.5 19.1716 9.5 20Z" fill="#FF0037" stroke="#FF0037"/>
<path d="M16 22C17.1046 22 18 21.1046 18 20C18 18.8954 17.1046 18 16 18C14.8954 18 14 18.8954 14 20C14 21.1046 14.8954 22 16 22Z" fill="#FF0037"/>
<path d="M22 12.53V14H19C18.45 14 18 13.55 18 13V10C18 9.45 18.45 9 19 9H20.29L21.74 11.54C21.91 11.84 22 12.18 22 12.53Z" fill="#FF0037"/>
<path d="M14 2H6C4.05 2 2.43002 3.4 2.08002 5.25H7C7.41 5.25 7.75 5.59 7.75 6C7.75 6.41 7.41 6.75 7 6.75H2V8.25H5C5.41 8.25 5.75 8.59 5.75 9C5.75 9.41 5.41 9.75 5 9.75H2V11.25H3C3.41 11.25 3.75 11.59 3.75 12C3.75 12.41 3.41 12.75 3 12.75H2V14H13C14.1 14 15 13.1 15 12V3C15 2.45 14.55 2 14 2Z" fill="#FF0037"/>
<path d="M2.08002 5.25H1C0.59 5.25 0.25 5.59 0.25 6C0.25 6.41 0.59 6.75 1 6.75H2V6C2 5.74 2.03002 5.49 2.08002 5.25Z" fill="#FF0037"/>
<path d="M1 8.25C0.59 8.25 0.25 8.59 0.25 9C0.25 9.41 0.59 9.75 1 9.75H2V8.25H1Z" fill="#FF0037"/>
<path d="M1 11.25C0.59 11.25 0.25 11.59 0.25 12C0.25 12.41 0.59 12.75 1 12.75H2V11.25H1Z" fill="#FF0037"/>
</svg>
