<svg width="26" height="25" viewBox="0 0 26 25" fill="none" xmlns="http://www.w3.org/2000/svg">
<path opacity="0.4" d="M13.0002 24.02C19.6332 24.02 25.0103 18.643 25.0103 12.01C25.0103 5.37706 19.6332 0 13.0002 0C6.3673 0 0.990234 5.37706 0.990234 12.01C0.990234 18.643 6.3673 24.02 13.0002 24.02Z" fill="#B2B6C6"/>
<path d="M12.9998 5.92078C10.5138 5.92078 8.49609 7.93846 8.49609 10.4245C8.49609 12.8626 10.4057 14.8442 12.9398 14.9163C12.9758 14.9163 13.0239 14.9163 13.0479 14.9163C13.0719 14.9163 13.1079 14.9163 13.132 14.9163C13.144 14.9163 13.156 14.9163 13.156 14.9163C15.582 14.8322 17.4916 12.8626 17.5036 10.4245C17.5036 7.93846 15.4859 5.92078 12.9998 5.92078Z" fill="#B2B6C6"/>
<path d="M21.143 20.8373C19.0052 22.807 16.1468 24.02 13.0002 24.02C9.85359 24.02 6.9952 22.807 4.85742 20.8373C5.14566 19.7444 5.92631 18.7476 7.06726 17.979C10.346 15.7931 15.6784 15.7931 18.9332 17.979C20.0861 18.7476 20.8548 19.7444 21.143 20.8373Z" fill="#B2B6C6"/>
</svg>
