<svg width="24" height="24" viewBox="0 0 24 24" fill="none" xmlns="http://www.w3.org/2000/svg">
<path d="M10.4136 21.5965L10.4115 21.5944L8.70353 19.9065C8.70317 19.9061 8.70281 19.9057 8.70245 19.9054C8.18503 19.3886 7.47673 19.11 6.76001 19.11H6C4.20265 19.11 2.75 17.6604 2.75 15.89V4.97998C2.75 3.20961 4.20265 1.76001 6 1.76001H18C19.7974 1.76001 21.25 3.20961 21.25 4.97998V15.89C21.25 17.6604 19.7974 19.11 18 19.11H17.24C16.5176 19.11 15.8128 19.4023 15.3007 19.9022L15.2986 19.9044L13.5885 21.5944L13.5864 21.5965C13.1547 22.0282 12.5739 22.25 12 22.25C11.4261 22.25 10.8453 22.0282 10.4136 21.5965ZM10.7685 21.2356L10.7701 21.2372C11.4545 21.9076 12.5555 21.9076 13.2399 21.2372L13.2415 21.2356L14.951 19.5461C14.951 19.5461 14.951 19.546 14.9511 19.546C15.5587 18.9471 16.3931 18.6 17.25 18.6H18C19.5103 18.6 20.75 17.382 20.75 15.88V4.96997C20.75 3.45656 19.5088 2.25 18 2.25H6C4.4897 2.25 3.25 3.46802 3.25 4.96997V15.88C3.25 17.3934 4.49118 18.6 6 18.6H6.76001C7.61695 18.6 8.45131 18.9471 9.05897 19.5461L10.7685 21.2356Z" fill="#222222" stroke="#222222"/>
<path d="M11.9999 10.2501C10.5761 10.2501 9.41992 9.0939 9.41992 7.67004C9.41992 6.2462 10.5761 5.09009 11.9999 5.09009C13.4238 5.09009 14.58 6.2462 14.58 7.67004C14.58 9.0939 13.4238 10.2501 11.9999 10.2501ZM11.9999 5.59009C10.8538 5.59009 9.91992 6.52388 9.91992 7.67004C9.91992 8.81619 10.8538 9.75006 11.9999 9.75006C13.1461 9.75006 14.08 8.81619 14.08 7.67004C14.08 6.52388 13.1461 5.59009 11.9999 5.59009Z" fill="#222222" stroke="#222222"/>
<path d="M16 15.9101C15.8661 15.9101 15.75 15.794 15.75 15.6601C15.75 14.7827 15.285 14.0198 14.602 13.492C13.9191 12.9643 12.9971 12.6501 12 12.6501C11.0029 12.6501 10.0809 12.9643 9.39801 13.492C8.71504 14.0198 8.25 14.7827 8.25 15.6601C8.25 15.794 8.13386 15.9101 8 15.9101C7.86614 15.9101 7.75 15.794 7.75 15.6601C7.75 13.8021 9.57358 12.1501 12 12.1501C14.4264 12.1501 16.25 13.8021 16.25 15.6601C16.25 15.794 16.1339 15.9101 16 15.9101Z" fill="#222222" stroke="#222222"/>
</svg>
