<svg width="24" height="24" viewBox="0 0 24 24" fill="none" xmlns="http://www.w3.org/2000/svg">
<path opacity="0.4" d="M4.73001 17.717L4.72997 17.717C3.91557 17.2469 3.40997 16.3724 3.40997 15.42V8.58003C3.40997 7.63982 3.91382 6.76335 4.73175 6.28199L10.67 2.85302C10.67 2.85301 10.67 2.853 10.67 2.853C11.4842 2.38295 12.4942 2.38151 13.3211 2.85362C13.3213 2.85378 13.3216 2.85395 13.3219 2.85412L19.2567 6.28107C19.2572 6.28136 19.2577 6.28165 19.2582 6.28195C20.0769 6.76374 20.58 7.63067 20.58 8.58003V15.42C20.58 16.3602 20.0762 17.2366 19.2583 17.718C19.2578 17.7183 19.2572 17.7186 19.2567 17.719L13.32 21.147C13.32 21.147 13.32 21.147 13.32 21.147C12.5058 21.6171 11.4959 21.6185 10.6691 21.1465C10.6687 21.1463 10.6684 21.1461 10.6681 21.1459L4.73001 17.717Z" fill="#F29743" stroke="#F29743"/>
<path d="M12 13.75C11.59 13.75 11.25 13.41 11.25 13V7.75C11.25 7.34 11.59 7 12 7C12.41 7 12.75 7.34 12.75 7.75V13C12.75 13.41 12.41 13.75 12 13.75Z" fill="#F29743"/>
<path d="M12 17.2499C11.87 17.2499 11.74 17.2198 11.62 17.1698C11.49 17.1198 11.39 17.0499 11.29 16.9599C11.2 16.8599 11.13 16.7499 11.07 16.6299C11.02 16.5099 11 16.3799 11 16.2499C11 15.9899 11.1 15.7298 11.29 15.5398C11.39 15.4498 11.49 15.3799 11.62 15.3299C11.99 15.1699 12.43 15.2598 12.71 15.5398C12.8 15.6398 12.87 15.7399 12.92 15.8699C12.97 15.9899 13 16.1199 13 16.2499C13 16.3799 12.97 16.5099 12.92 16.6299C12.87 16.7499 12.8 16.8599 12.71 16.9599C12.52 17.1499 12.27 17.2499 12 17.2499Z" fill="#F29743"/>
</svg>
